<?xml version="1.0" standalone="no"?>
<!DOCTYPE svg PUBLIC "-//W3C//DTD SVG 20010904//EN"
 "http://www.w3.org/TR/2001/REC-SVG-20010904/DTD/svg10.dtd">
<svg version="1.0" xmlns="http://www.w3.org/2000/svg"
 width="849.000000pt" height="849.000000pt" viewBox="0 0 849.000000 849.000000"
 preserveAspectRatio="xMidYMid meet">
<metadata>
Created by potrace 1.14, written by Peter Selinger 2001-2017
</metadata>
<g transform="translate(0.000000,849.000000) scale(0.100000,-0.100000)"
fill="#000000" stroke="none">
<path d="M257 7999 c-47 -8 -83 -32 -103 -72 -16 -29 -17 -120 -17 -1087 0
-580 3 -1066 8 -1080 11 -36 53 -78 89 -89 19 -6 446 -9 1081 -9 l1050 0 39
22 c79 43 73 -39 73 1146 0 617 -4 1065 -9 1080 -14 38 -57 78 -91 86 -37 8
-2070 11 -2120 3z"/>
<path d="M2697 8002 c-16 -3 -17 -85 -15 -1265 l3 -1262 26 -70 c60 -161 124
-263 229 -365 77 -75 152 -122 248 -157 134 -49 151 -50 1119 -51 499 0 934
-1 967 -1 l58 -1 -384 -384 -384 -384 -565 0 -564 0 -85 -27 c-180 -57 -328
-143 -443 -258 -87 -87 -95 -97 -140 -178 -32 -58 -73 -164 -83 -214 -2 -11
-6 -32 -10 -48 -6 -30 -9 -2826 -2 -2832 2 -2 387 379 855 848 777 778 854
859 892 927 37 68 78 176 98 255 4 17 8 243 10 502 l4 473 22 1 c12 0 49 1 82
1 48 0 73 7 126 33 180 91 319 210 569 485 117 128 639 651 1019 1020 318 308
321 312 321 319 0 3 -474 6 -1052 5 -579 0 -1058 1 -1064 3 -7 3 -11 121 -11
383 l-1 380 958 0 c930 0 958 1 1015 20 70 24 154 70 255 141 54 37 307 285
892 873 449 451 815 823 813 825 -5 4 -5755 7 -5778 3z m4448 -553 c2 -3 -164
-173 -369 -378 l-373 -373 -1212 0 c-891 0 -1211 -3 -1212 -12 0 -6 -2 -288
-4 -626 -1 -338 -3 -631 -4 -650 l-1 -36 -242 1 -243 1 -55 29 c-66 35 -169
135 -193 187 -16 33 -17 110 -17 946 0 845 1 911 17 914 26 5 3903 2 3908 -3z
m-3185 -3938 l25 -1 0 -430 0 -430 -370 -370 c-203 -203 -371 -367 -374 -365
-2 3 -4 308 -4 678 l0 674 28 52 c49 89 140 172 213 192 10 3 391 3 482 0z"/>
<path d="M380 5474 c-102 -23 -188 -99 -226 -199 -18 -48 -19 -92 -19 -970 l0
-920 26 -56 c32 -68 82 -120 152 -157 l52 -27 282 -3 282 -3 -30 -84 c-16 -46
-59 -169 -95 -272 -36 -103 -99 -285 -141 -403 -41 -118 -108 -309 -148 -425
-40 -115 -96 -275 -124 -355 -29 -80 -65 -185 -82 -235 -16 -49 -34 -99 -39
-110 -5 -11 -48 -132 -95 -270 -48 -137 -105 -301 -127 -364 -21 -62 -37 -115
-34 -118 4 -4 765 -6 1096 -3 19 0 29 8 39 33 8 17 38 82 67 142 28 61 62 133
74 160 12 28 43 93 67 145 25 52 69 147 98 210 29 63 72 156 95 205 23 50 55
117 70 150 28 60 82 175 147 315 20 41 48 102 63 135 82 178 136 293 219 469
34 71 61 130 61 131 0 2 27 60 60 130 33 70 60 128 60 130 0 1 30 65 66 141
36 77 75 159 86 184 11 25 36 79 57 119 l36 75 3 900 c2 638 0 918 -8 960 -10
53 -33 99 -72 147 -25 30 -101 79 -142 91 -56 16 -1806 18 -1876 2z"/>
</g>
</svg>
